# xmcd
#
# Track frame offsets:
#	150
#	19311
#	34923
#	51712
#	66649
#	87136
#	105952
#	129980
#	148751
#	177018
#	192875
#	210495
#
# Disc length: 3144 seconds
#
# Revision: 1
# Processed by: cddbd v1.5.2PL0 Copyright (c) Steve Scherf et al.
# Submitted via: EasyCDDAExtractor 5.0.6
#
DISCID=ac0c460c
DTITLE=Various Artist - Nos stars chantent le blues à Montréal
DYEAR=2010
DGENRE=Blues
TTITLE0=Yann Perreau - Shake your money maker
TTITLE1=Zachary Richard - Midnight special
TTITLE2=Patrick Huard - Aline
TTITLE3=Nadja - You can have my husband (dont't touch my man)
TTITLE4=Jonas and Frank Marino - Who do you love
TTITLE5=Plume Latraverse - Bordeaux beach blues
TTITLE6=Mario Pelchat and Paul Deslauriers - Les blues d'Elvis
TTITLE7=Catherine Major and Steve Hill - I just want to make love to you
TTITLE8=Éric Lapointe - Blue Valentine
TTITLE9=Dan Bigras - Bad to the bone
TTITLE10=Robert Charlebois - Que can blues
TTITLE11=Offenbach - Dimanche blues
EXTD=
EXTT0=
EXTT1=
EXTT2=
EXTT3=
EXTT4=
EXTT5=
EXTT6=
EXTT7=
EXTT8=
EXTT9=
EXTT10=
EXTT11=
PLAYORDER=
